<svg class="animated" id="freepik_stories-heavy-box" xmlns="http://www.w3.org/2000/svg" viewBox="0 0 500 500" version="1.1" xmlns:xlink="http://www.w3.org/1999/xlink" xmlns:svgjs="http://svgjs.com/svgjs"><style>svg#freepik_stories-heavy-box:not(.animated) .animable {opacity: 0;}svg#freepik_stories-heavy-box.animated #freepik--background-simple--inject-180 {animation: 1.6s 1 forwards cubic-bezier(.36,-0.01,.5,1.38) slideDown,6s Infinite  linear floating;animation-delay: 0s,1.6s;}            @keyframes slideDown {                0% {                    opacity: 0;                    transform: translateY(-30px);                }                100% {                    opacity: 1;                    transform: translateY(0);                }            }                    @keyframes floating {                0% {                    opacity: 1;                    transform: translateY(0px);                }                50% {                    transform: translateY(-10px);                }                100% {                    opacity: 1;                    transform: translateY(0px);                }            }        </style><g id="freepik--background-simple--inject-180" style="transform-origin: 239.296705px 241.414326px;" class="animable animator-active"><path d="M156.19,55.92S80.42,94.52,42.63,154,7.83,290,53.75,346.8s133.69,49.34,207.18,85.32,154.57,28.57,189.32-47.66S432.6,279.74,423.6,191.52,335.07-25.88,156.19,55.92Z" style="fill: rgb(0, 255, 136); transform-origin: 239.296705px 241.414326px;" id="elc35vfx8jyy" class="animable"></path><g id="el7x7tz8teyzn"><path d="M156.19,55.92S80.42,94.52,42.63,154,7.83,290,53.75,346.8s133.69,49.34,207.18,85.32,154.57,28.57,189.32-47.66S432.6,279.74,423.6,191.52,335.07-25.88,156.19,55.92Z" style="fill: rgb(255, 255, 255); opacity: 0.7; transform-origin: 239.296705px 241.414326px;" class="animable"></path></g></g><g id="freepik--Lamp--inject-180" style="transform-origin: 64.5px 46.480001px;" class="animable"><path d="M70.74,70.05a6.24,6.24,0,1,1-6.24-6.24A6.24,6.24,0,0,1,70.74,70.05Z" style="fill: none; stroke: gray; stroke-miterlimit: 10; transform-origin: 64.499998px 70.050003px;" id="el3cvlpuq3owo" class="animable"></path><polygon points="98 70 31 70 51 56 78 56 98 70" style="fill: rgb(38, 50, 56); stroke: rgb(38, 50, 56); stroke-linecap: round; stroke-linejoin: round; transform-origin: 64.5px 63px;" id="el0vuvoij8st9" class="animable"></polygon><rect x="59.19" y="47.68" width="10.63" height="14" style="fill: rgb(38, 50, 56); stroke: rgb(38, 50, 56); stroke-linecap: round; stroke-linejoin: round; transform-origin: 64.505px 54.68px;" id="elnioxmap4val" class="animable"></rect><line x1="64.27" y1="48.55" x2="64.27" y2="16.67" style="fill: none; stroke: rgb(38, 50, 56); stroke-linecap: round; stroke-linejoin: round; transform-origin: 64.269997px 32.61px;" id="eliu30wz4f41o" class="animable"></line></g><g id="freepik--boxes-1--inject-180" style="transform-origin: 185.285004px 231.069996px;" class="animable"><polyline points="312.98 57.92 312.98 42.31 327.54 42.31 327.54 155.43" style="fill: none; stroke: gray; stroke-miterlimit: 10; transform-origin: 320.26001px 98.869999px;" id="eln22129i8mve" class="animable"></polyline><line x1="312.98" y1="296.49" x2="312.98" y2="62.16" style="fill: none; stroke: gray; stroke-miterlimit: 10; transform-origin: 312.980011px 179.324993px;" id="elmee0v6pf6ek" class="animable"></line><polyline points="327.54 159.67 327.54 419.83 312.98 419.83 312.98 302.27" style="fill: none; stroke: gray; stroke-miterlimit: 10; transform-origin: 320.26001px 289.749985px;" id="elynlkveeybc" class="animable"></polyline><polyline points="237 49.16 237 42.31 251.56 42.31 251.56 47.91" style="fill: none; stroke: gray; stroke-miterlimit: 10; transform-origin: 244.279999px 45.735001px;" id="elomv3cmga7zc" class="animable"></polyline><line x1="237" y1="170.84" x2="237" y2="166.25" style="fill: none; stroke: gray; stroke-miterlimit: 10; transform-origin: 237px 168.544998px;" id="elr1xblh2uvy" class="animable"></line><polyline points="251.56 406.34 251.56 419.83 237 419.83 237 356.22" style="fill: none; stroke: gray; stroke-miterlimit: 10; transform-origin: 244.279999px 388.024994px;" id="eljsymrz63f2p" class="animable"></polyline><line x1="251.56" y1="355.97" x2="251.56" y2="401.33" style="fill: none; stroke: gray; stroke-miterlimit: 10; transform-origin: 251.559998px 378.649994px;" id="elr1hqm55blji" class="animable"></line><line x1="89.12" y1="393.23" x2="89.12" y2="356.22" style="fill: none; stroke: gray; stroke-miterlimit: 10; transform-origin: 89.120003px 374.725006px;" id="elxoxns14f4e" class="animable"></line><polyline points="103.68 355.97 103.68 419.83 89.12 419.83 89.12 399.4" style="fill: none; stroke: gray; stroke-miterlimit: 10; transform-origin: 96.400002px 387.899994px;" id="elcpvke2od7fr" class="animable"></polyline><line x1="251.56" y1="165" x2="251.56" y2="170.59" style="fill: none; stroke: gray; stroke-miterlimit: 10; transform-origin: 251.559998px 167.794998px;" id="elgl4lhazicu7" class="animable"></line><polyline points="194.36 165.67 313.03 165.67 313.03 149.67 43.03 149.67" style="fill: none; stroke: gray; stroke-miterlimit: 10; transform-origin: 178.029999px 157.669998px;" id="elfonmp97iq3q" class="animable"></polyline><line x1="100.7" y1="165.67" x2="190.5" y2="165.67" style="fill: none; stroke: gray; stroke-miterlimit: 10; transform-origin: 145.599998px 165.669998px;" id="el20mpbi3q5pr" class="animable"></line><line x1="88.37" y1="165.67" x2="96.85" y2="165.67" style="fill: none; stroke: gray; stroke-miterlimit: 10; transform-origin: 92.610001px 165.669998px;" id="el0cun2z644u7" class="animable"></line><line x1="43.03" y1="165.67" x2="83.74" y2="165.67" style="fill: none; stroke: gray; stroke-miterlimit: 10; transform-origin: 63.384998px 165.669998px;" id="elovrv9wj3i1c" class="animable"></line><rect x="274.24" y="317.11" width="30.09" height="23.29" style="fill: none; stroke: gray; stroke-miterlimit: 10; transform-origin: 289.285px 328.755px;" id="el60ehyr4r1h6" class="animable"></rect><rect x="200.95" y="317.11" width="30.09" height="23.29" style="fill: none; stroke: gray; stroke-miterlimit: 10; transform-origin: 215.995px 328.755px;" id="elnoxjt8yefgi" class="animable"></rect><rect x="70.71" y="317.11" width="87.03" height="23.29" style="fill: none; stroke: gray; stroke-miterlimit: 10; transform-origin: 114.225px 328.755px;" id="elx79cti27d1a" class="animable"></rect><rect x="132.36" y="317.11" width="25.38" height="23.29" style="fill: none; stroke: gray; stroke-miterlimit: 10; transform-origin: 145.05px 328.755px;" id="els473c95n8ol" class="animable"></rect><rect x="57.02" y="312.43" width="249.83" height="4.66" style="fill: none; stroke: gray; stroke-miterlimit: 10; transform-origin: 181.935px 314.76px;" id="eldcq3alppr1" class="animable"></rect><rect x="121.74" y="312.43" width="185.1" height="4.66" style="fill: none; stroke: gray; stroke-miterlimit: 10; transform-origin: 214.29px 314.76px;" id="elmas0s6gfxoa" class="animable"></rect><rect x="60.33" y="309" width="88.82" height="3.56" style="fill: none; stroke: gray; stroke-miterlimit: 10; transform-origin: 104.74px 310.78px;" id="elmzc0wt0iqok" class="animable"></rect><rect x="168.53" y="309" width="18.21" height="3.34" style="fill: none; stroke: gray; stroke-miterlimit: 10; transform-origin: 177.635px 310.67px;" id="elhpt68v3h0ug" class="animable"></rect><rect x="206.12" y="309" width="18.21" height="3.34" style="fill: none; stroke: gray; stroke-miterlimit: 10; transform-origin: 215.225px 310.67px;" id="elytkt5tcpqc" class="animable"></rect><rect x="243.71" y="309" width="18.21" height="3.34" style="fill: none; stroke: gray; stroke-miterlimit: 10; transform-origin: 252.815px 310.67px;" id="elpcpjs8xobde" class="animable"></rect><rect x="281.3" y="309" width="18.21" height="3.34" style="fill: none; stroke: gray; stroke-miterlimit: 10; transform-origin: 290.405px 310.67px;" id="elng3bv9lfm3q" class="animable"></rect><line x1="157.74" y1="340.4" x2="200.95" y2="340.4" style="fill: none; stroke: gray; stroke-miterlimit: 10; transform-origin: 179.345001px 340.399994px;" id="elmzgt129jsbc" class="animable"></line><line x1="231.03" y1="340.4" x2="274.24" y2="340.4" style="fill: none; stroke: gray; stroke-miterlimit: 10; transform-origin: 252.634995px 340.399994px;" id="elk4lplw4f16e" class="animable"></line><line x1="132.05" y1="312.46" x2="132.05" y2="309.12" style="fill: none; stroke: gray; stroke-miterlimit: 10; transform-origin: 132.050003px 310.789993px;" id="elpker50kz2bp" class="animable"></line><line x1="149.15" y1="309" x2="168.53" y2="309" style="fill: none; stroke: gray; stroke-miterlimit: 10; transform-origin: 158.839996px 309px;" id="elzliwdmkuht" class="animable"></line><line x1="186.74" y1="309" x2="206.12" y2="309" style="fill: none; stroke: gray; stroke-miterlimit: 10; transform-origin: 196.43px 309px;" id="eln3zulhc3yud" class="animable"></line><line x1="224.33" y1="309" x2="243.71" y2="309" style="fill: none; stroke: gray; stroke-miterlimit: 10; transform-origin: 234.020004px 309px;" id="elefu0lwa8b9" class="animable"></line><line x1="261.92" y1="309" x2="281.3" y2="309" style="fill: none; stroke: gray; stroke-miterlimit: 10; transform-origin: 271.610001px 309px;" id="elyxreckhsxn" class="animable"></line><polyline points="62.16 356.36 313.03 356.36 313.03 340.36 43.03 340.36" style="fill: none; stroke: gray; stroke-miterlimit: 10; transform-origin: 178.029999px 348.359985px;" id="elezymwj1re" class="animable"></polyline><line x1="43.03" y1="356.36" x2="57.54" y2="356.36" style="fill: none; stroke: gray; stroke-miterlimit: 10; transform-origin: 50.285px 356.359985px;" id="elp7w87avfyod" class="animable"></line><rect x="217.18" y="170.71" width="83.04" height="68.99" style="fill: none; stroke: gray; stroke-miterlimit: 10; transform-origin: 258.7px 205.205px;" id="eldtdfzci572" class="animable"></rect><rect x="233.45" y="170.71" width="66.77" height="68.99" style="fill: none; stroke: gray; stroke-miterlimit: 10; transform-origin: 266.835px 205.205px;" id="el0so0pjzrcgq" class="animable"></rect><path d="M274.66,176.2h-14a2.44,2.44,0,0,1-2.44-2.44h0a2.44,2.44,0,0,1,2.44-2.44h14a2.44,2.44,0,0,1,2.44,2.44h0A2.44,2.44,0,0,1,274.66,176.2Z" style="fill: none; stroke: gray; stroke-miterlimit: 10; transform-origin: 267.660004px 173.759995px;" id="el49hqccogop4" class="animable"></path><rect x="217.18" y="239.68" width="83.04" height="68.99" style="fill: none; stroke: gray; stroke-miterlimit: 10; transform-origin: 258.7px 274.175px;" id="elb8i6shb4kzt" class="animable"></rect><rect x="233.45" y="239.68" width="66.77" height="68.99" style="fill: none; stroke: gray; stroke-miterlimit: 10; transform-origin: 266.835px 274.175px;" id="elt4ia4jd8a9l" class="animable"></rect><rect x="258.22" y="240.29" width="18.88" height="4.87" rx="2.44" style="fill: none; stroke: gray; stroke-miterlimit: 10; transform-origin: 267.66px 242.725px;" id="elkiecjnyobh" class="animable"></rect><rect x="121.04" y="239.68" width="83.04" height="68.99" style="fill: none; stroke: gray; stroke-miterlimit: 10; transform-origin: 162.56px 274.175px;" id="el7hdomjz3j6m" class="animable"></rect><rect x="137.31" y="239.68" width="66.77" height="68.99" style="fill: none; stroke: gray; stroke-miterlimit: 10; transform-origin: 170.695px 274.175px;" id="eliv8whgy8gv" class="animable"></rect><rect x="162.09" y="240.29" width="18.88" height="4.87" rx="2.44" style="fill: none; stroke: gray; stroke-miterlimit: 10; transform-origin: 171.53px 242.725px;" id="el9x12p8dk1zj" class="animable"></rect><rect x="274.24" y="126.2" width="30.09" height="23.29" style="fill: none; stroke: gray; stroke-miterlimit: 10; transform-origin: 289.285px 137.845px;" id="elqgyr7is09ii" class="animable"></rect><rect x="200.95" y="126.2" width="30.09" height="23.29" style="fill: none; stroke: gray; stroke-miterlimit: 10; transform-origin: 215.995px 137.845px;" id="elgy5b3yjryos" class="animable"></rect><rect x="70.71" y="126.2" width="87.03" height="23.29" style="fill: none; stroke: gray; stroke-miterlimit: 10; transform-origin: 114.225px 137.845px;" id="el1t0k38lsaqhj" class="animable"></rect><rect x="132.36" y="126.2" width="25.38" height="23.29" style="fill: none; stroke: gray; stroke-miterlimit: 10; transform-origin: 145.05px 137.845px;" id="ela5j67kjzyec" class="animable"></rect><rect x="57.02" y="121.53" width="249.83" height="4.66" style="fill: none; stroke: gray; stroke-miterlimit: 10; transform-origin: 181.935px 123.86px;" id="elgdl30f7lpl" class="animable"></rect><rect x="121.74" y="121.53" width="185.1" height="4.66" style="fill: none; stroke: gray; stroke-miterlimit: 10; transform-origin: 214.29px 123.86px;" id="elvwnqg4swpwk" class="animable"></rect><polyline points="84.48 118.09 60.33 118.09 60.33 121.65 149.15 121.65 149.15 118.09 88.53 118.09" style="fill: none; stroke: gray; stroke-miterlimit: 10; transform-origin: 104.739998px 119.869999px;" id="elg379orrbjkv" class="animable"></polyline><rect x="168.53" y="118.1" width="18.21" height="3.34" style="fill: none; stroke: gray; stroke-miterlimit: 10; transform-origin: 177.635px 119.77px;" id="elijg4vsx78c" class="animable"></rect><rect x="206.12" y="118.1" width="18.21" height="3.34" style="fill: none; stroke: gray; stroke-miterlimit: 10; transform-origin: 215.225px 119.77px;" id="elayr37xap6h" class="animable"></rect><rect x="243.71" y="118.1" width="18.21" height="3.34" style="fill: none; stroke: gray; stroke-miterlimit: 10; transform-origin: 252.815px 119.77px;" id="elg2wu802kxjr" class="animable"></rect><rect x="281.3" y="118.1" width="18.21" height="3.34" style="fill: none; stroke: gray; stroke-miterlimit: 10; transform-origin: 290.405px 119.77px;" id="el4wcaqfmm4ly" class="animable"></rect><line x1="157.74" y1="149.5" x2="200.95" y2="149.5" style="fill: none; stroke: gray; stroke-miterlimit: 10; transform-origin: 179.345001px 149.5px;" id="elmdwedm0xlm" class="animable"></line><line x1="231.03" y1="149.5" x2="274.24" y2="149.5" style="fill: none; stroke: gray; stroke-miterlimit: 10; transform-origin: 252.634995px 149.5px;" id="ellcrg0uifwqe" class="animable"></line><line x1="132.05" y1="121.55" x2="132.05" y2="118.22" style="fill: none; stroke: gray; stroke-miterlimit: 10; transform-origin: 132.050003px 119.885002px;" id="eli8pwrer2fpm" class="animable"></line><line x1="149.15" y1="118.1" x2="168.53" y2="118.1" style="fill: none; stroke: gray; stroke-miterlimit: 10; transform-origin: 158.839996px 118.099998px;" id="ele40qfx0tnu4" class="animable"></line><line x1="186.74" y1="118.1" x2="206.12" y2="118.1" style="fill: none; stroke: gray; stroke-miterlimit: 10; transform-origin: 196.43px 118.099998px;" id="el0wf6mrmr6un" class="animable"></line><line x1="224.33" y1="118.1" x2="243.71" y2="118.1" style="fill: none; stroke: gray; stroke-miterlimit: 10; transform-origin: 234.020004px 118.099998px;" id="elb4udlcatyxf" class="animable"></line><line x1="261.92" y1="118.1" x2="281.3" y2="118.1" style="fill: none; stroke: gray; stroke-miterlimit: 10; transform-origin: 271.610001px 118.099998px;" id="ell05t8vweanf" class="animable"></line><rect x="217.18" y="48.78" width="83.04" height="68.99" style="fill: none; stroke: gray; stroke-miterlimit: 10; transform-origin: 258.7px 83.275px;" id="elbdc6xbqabqi" class="animable"></rect><polyline points="233.45 94.6 233.45 48.78 300.21 48.78 300.21 117.77 233.45 117.77 233.45 100.37" style="fill: none; stroke: gray; stroke-miterlimit: 10; transform-origin: 266.829994px 83.274998px;" id="elfmt467v8lbd" class="animable"></polyline><path d="M274.66,54.26h-14a2.44,2.44,0,0,1-2.44-2.44h0a2.43,2.43,0,0,1,2.44-2.43h14a2.43,2.43,0,0,1,2.44,2.43h0A2.44,2.44,0,0,1,274.66,54.26Z" style="fill: none; stroke: gray; stroke-miterlimit: 10; transform-origin: 267.660019px 51.824987px;" id="elekla12rgjv" class="animable"></path><polyline points="204.08 78.99 204.08 117.77 121.04 117.77 121.04 48.78 204.08 48.78 204.08 74.66" style="fill: none; stroke: gray; stroke-miterlimit: 10; transform-origin: 162.560001px 83.274998px;" id="eluq127xbayme" class="animable"></polyline><polyline points="204.08 78.99 204.08 117.77 137.31 117.77 137.31 48.78 204.08 48.78 204.08 71.77" style="fill: none; stroke: gray; stroke-miterlimit: 10; transform-origin: 170.695px 83.274998px;" id="elrzthz01g59" class="animable"></polyline><path d="M178.53,54.26h-14a2.43,2.43,0,0,1-2.43-2.44h0a2.43,2.43,0,0,1,2.43-2.43h14A2.44,2.44,0,0,1,181,51.82h0A2.44,2.44,0,0,1,178.53,54.26Z" style="fill: none; stroke: gray; stroke-miterlimit: 10; transform-origin: 171.549995px 51.824999px;" id="eldu6imu22fev" class="animable"></path><line x1="286.02" y1="356.44" x2="313.2" y2="375.01" style="fill: none; stroke: gray; stroke-miterlimit: 10; transform-origin: 299.610001px 365.725006px;" id="elxlanmvvojue" class="animable"></line><line x1="313.16" y1="389.02" x2="265.64" y2="356.53" style="fill: none; stroke: gray; stroke-miterlimit: 10; transform-origin: 289.400009px 372.774994px;" id="elfzx2y9fmh9w" class="animable"></line><line x1="209.69" y1="356.44" x2="236.86" y2="375.01" style="fill: none; stroke: gray; stroke-miterlimit: 10; transform-origin: 223.275002px 365.725006px;" id="ely9bxepobfc" class="animable"></line><line x1="236.82" y1="389.02" x2="189.3" y2="356.53" style="fill: none; stroke: gray; stroke-miterlimit: 10; transform-origin: 213.060005px 372.774994px;" id="elc5rv5g84a5s" class="animable"></line></g><g id="freepik--Floor--inject-180" style="transform-origin: 253px 419.820007px;" class="animable"><line x1="472" y1="419.82" x2="34" y2="419.82" style="fill: none; stroke: rgb(38, 50, 56); stroke-linecap: round; stroke-linejoin: round; transform-origin: 253px 419.820007px;" id="el2f5e8m09yot" class="animable"></line></g><g id="freepik--boxes-2--inject-180" style="transform-origin: 377.154999px 311.940002px;" class="animable"><rect x="287.43" y="353.23" width="98.45" height="81.96" style="fill: rgb(38, 50, 56); stroke: gray; stroke-miterlimit: 10; transform-origin: 336.655px 394.21px;" id="ely7loql2vvt" class="animable"></rect><rect x="287.43" y="353.23" width="70.5" height="81.96" style="fill: rgb(209, 209, 209); stroke: gray; stroke-miterlimit: 10; transform-origin: 322.68px 394.21px;" id="el0q03e09dv7bd" class="animable"></rect><polygon points="349.66 370.7 343.69 357.5 337.7 370.67 340.8 370.68 340.8 384.17 346.55 384.18 346.56 370.69 349.66 370.7" style="fill: rgb(38, 50, 56); transform-origin: 343.680008px 370.839996px;" id="elxubg45nry3e" class="animable"></polygon><path d="M341.3,386.94v6.74c0,.62.19.84.5.85s.5-.23.5-.85V387h.92v6.64c0,1.4-.49,2.2-1.44,2.19s-1.44-.8-1.44-2.19v-6.65Z" style="fill: rgb(38, 50, 56); transform-origin: 341.779999px 391.385056px;" id="elrqjqextrhmf" class="animable"></path><path d="M346.74,389.12v1.13c0,1.4-.47,2.16-1.44,2.16h-.46v3.28h-1V387h1.42C346.27,387,346.74,387.72,346.74,389.12Zm-1.9-.92v3h.46c.31,0,.47-.2.47-.82V389c0-.62-.17-.83-.48-.83Z" style="fill: rgb(38, 50, 56); transform-origin: 345.289993px 391.345001px;" id="elgyujh5z49f" class="animable"></path><rect x="316.68" y="353.23" width="12" height="15.44" style="fill: rgb(245, 245, 245); stroke: gray; stroke-miterlimit: 10; transform-origin: 322.68px 360.95px;" id="elqpa1bzjn7js" class="animable"></rect><rect x="368.43" y="353.23" width="98.45" height="81.96" style="fill: rgb(38, 50, 56); stroke: gray; stroke-miterlimit: 10; transform-origin: 417.655px 394.21px;" id="elux2h2rc4vr" class="animable"></rect><rect x="368.43" y="353.23" width="70.5" height="81.96" style="fill: rgb(209, 209, 209); stroke: gray; stroke-miterlimit: 10; transform-origin: 403.68px 394.21px;" id="el39g8137h5xk" class="animable"></rect><rect x="397.68" y="353.23" width="12" height="15.44" style="fill: rgb(245, 245, 245); stroke: gray; stroke-miterlimit: 10; transform-origin: 403.68px 360.95px;" id="el480qlh0yvka" class="animable"></rect><rect x="363.44" y="271.69" width="98.45" height="81.96" style="fill: rgb(38, 50, 56); stroke: gray; stroke-miterlimit: 10; transform-origin: 412.665px 312.67px;" id="el9s0j80obdd7" class="animable"></rect><rect x="363.44" y="271.69" width="70.5" height="81.96" style="fill: rgb(209, 209, 209); stroke: gray; stroke-miterlimit: 10; transform-origin: 398.69px 312.67px;" id="el3gy8f3t6es8" class="animable"></rect><polygon points="428.66 290.2 422.69 277 416.7 290.17 419.8 290.18 419.8 303.67 425.55 303.68 425.56 290.19 428.66 290.2" style="fill: rgb(38, 50, 56); transform-origin: 422.680008px 290.339996px;" id="elyjjvoplciz" class="animable"></polygon><path d="M420.3,306.44v6.74c0,.62.19.84.5.85s.5-.23.5-.85v-6.73h.92v6.64c0,1.4-.49,2.2-1.44,2.19s-1.44-.8-1.44-2.19v-6.65Z" style="fill: rgb(38, 50, 56); transform-origin: 420.779999px 310.860046px;" id="elutuo3zpk98o" class="animable"></path><path d="M425.74,308.62v1.13c0,1.4-.47,2.16-1.44,2.16h-.46v3.28h-1v-8.73h1.42C425.27,306.46,425.74,307.22,425.74,308.62Zm-1.9-.92v3h.46c.31,0,.47-.2.47-.82v-1.31c0-.62-.17-.83-.48-.83Z" style="fill: rgb(38, 50, 56); transform-origin: 424.289993px 310.824997px;" id="elzemsh4tmvno" class="animable"></path><rect x="392.68" y="271.69" width="12.01" height="15.44" style="fill: rgb(245, 245, 245); stroke: gray; stroke-miterlimit: 10; transform-origin: 398.685px 279.41px;" id="el1zfn31br9mh" class="animable"></rect><rect x="363.44" y="188.69" width="98.45" height="81.96" style="fill: rgb(38, 50, 56); stroke: gray; stroke-miterlimit: 10; transform-origin: 412.665px 229.67px;" id="eljdh8qnzc8s9" class="animable"></rect><rect x="363.44" y="188.69" width="70.5" height="81.96" style="fill: rgb(209, 209, 209); stroke: gray; stroke-miterlimit: 10; transform-origin: 398.69px 229.67px;" id="elop49y2s83h" class="animable"></rect><g id="elh01ifh7zuee"><rect x="375.79" y="238.25" width="29.22" height="16.12" style="fill: rgb(245, 245, 245); stroke: gray; stroke-miterlimit: 10; transform-origin: 390.4px 246.31px; transform: rotate(-31.88deg);" class="animable"></rect></g><g id="el2p8kpy0uqtn"><rect x="297.2" y="397.96" width="29.22" height="16.12" style="fill: rgb(245, 245, 245); stroke: gray; stroke-miterlimit: 10; transform-origin: 311.81px 406.02px; transform: rotate(-31.88deg);" class="animable"></rect></g><rect x="392.68" y="188.69" width="12.01" height="15.44" style="fill: rgb(245, 245, 245); stroke: gray; stroke-miterlimit: 10; transform-origin: 398.685px 196.41px;" id="elj1ufq23tmy" class="animable"></rect></g><g id="freepik--Window--inject-180" style="transform-origin: 412px 86.5px;" class="animable"><g id="elhxu83xrsevj"><rect x="350" y="54" width="124" height="65" style="fill: none; stroke: gray; stroke-miterlimit: 10; transform-origin: 412px 86.5px; transform: rotate(180deg);" class="animable"></rect></g><polyline points="467.61 54.57 473.31 65.97 354.23 65.97 350 54" style="fill: none; stroke: gray; stroke-miterlimit: 10; transform-origin: 411.654999px 59.985001px;" id="elz86wsqes3bl" class="animable"></polyline><polyline points="467.61 66.28 473.31 77.69 354.23 77.69 350 65.72" style="fill: none; stroke: gray; stroke-miterlimit: 10; transform-origin: 411.654999px 71.705002px;" id="elfp0mfg27hf" class="animable"></polyline><polyline points="467.61 78 473.31 89.4 354.23 89.4 350 77.44" style="fill: none; stroke: gray; stroke-miterlimit: 10; transform-origin: 411.654999px 83.420002px;" id="elehf42k859b4" class="animable"></polyline><polyline points="467.61 89.72 473.31 101.12 354.23 101.12 350 89.15" style="fill: none; stroke: gray; stroke-miterlimit: 10; transform-origin: 411.654999px 95.135002px;" id="eltm8ekfs4zmq" class="animable"></polyline><polyline points="467.61 101.44 473.31 112.84 354.23 112.84 350 100.87" style="fill: none; stroke: gray; stroke-miterlimit: 10; transform-origin: 411.654999px 106.855px;" id="elofc9hph59m" class="animable"></polyline></g><g id="freepik--Character--inject-180" style="transform-origin: 179.513206px 328.276138px;" class="animable"><path d="M154.5,434.92c38.51,0,71.27,5.81,83.45,13.92l32.57,12.92-82.69,20.5-19.7-5.76q-6.66.24-13.63.25c-48.9,0-88.53-9.37-88.53-20.92S105.6,434.92,154.5,434.92Z" style="fill: rgb(38, 50, 56); transform-origin: 168.244987px 458.590027px;" id="elzhbpelvx6r" class="animable"></path><path d="M73.49,296.38s-3,7.11-5.42,14.22-3.23,12.46-2.22,17.87,6,11.23,11,12.25,33.85-8.46,41.29-14.22,2.37-20.64-3.72-24S73.49,296.38,73.49,296.38Z" style="fill: rgb(255, 255, 255); stroke: rgb(38, 50, 56); stroke-linecap: round; stroke-linejoin: round; transform-origin: 93.636482px 318.588013px;" id="el4q8e9s4epui" class="animable"></path><path d="M80.42,302.58s7.58,4.81,11.65,6.1,11.46,2.78,11.46,2.78-12.76-.93-15.35.18-4.81,2.22-4.81,2.22,18.5-.55,22.57,2.22,9.06,7,9.06,7l-5.73-14.8.92-1.66S92.44,306.83,80.42,302.58Z" style="fill: rgb(38, 50, 56); stroke: rgb(38, 50, 56); stroke-linecap: round; stroke-linejoin: round; transform-origin: 97.709999px 312.829987px;" id="elk4yglc6a96" class="animable"></path><path d="M162.69,235.36s14.17,7.78,16.12,15.83a49.38,49.38,0,0,0,5,13.06l-68.36,42.24s-14.72,3.33-26.12-.28-17.22-5.28-17-10,4.73-8.06,6.12-10.56,13.06-29.73,19.73-40.29,8.61-19.17,22.23-24.73a61.1,61.1,0,0,1,25-4.73Z" style="fill: rgb(0, 255, 136); stroke: rgb(38, 50, 56); stroke-linecap: round; stroke-linejoin: round; transform-origin: 128.066994px 261.887283px;" id="elfwz15s0do35" class="animable"></path><path d="M85.23,297.84c-1.66,0-3.32,0-5-.15" style="fill: none; stroke: rgb(38, 50, 56); stroke-linecap: round; stroke-linejoin: round; transform-origin: 82.730003px 297.764999px;" id="ell1p7pthgfb9" class="animable"></path><path d="M107.07,296a146.52,146.52,0,0,1-19.62,1.79" style="fill: none; stroke: rgb(38, 50, 56); stroke-linecap: round; stroke-linejoin: round; transform-origin: 97.260002px 296.895004px;" id="elybzka60a8br" class="animable"></path><path d="M112.11,295.15s-.85.18-2.35.44" style="fill: none; stroke: rgb(38, 50, 56); stroke-linecap: round; stroke-linejoin: round; transform-origin: 110.935001px 295.369995px;" id="el0lq1kfe8mdkh" class="animable"></path><path d="M106.35,285.46c-6.22,3.13-16.87,7.82-27.7,9.46" style="fill: none; stroke: rgb(38, 50, 56); stroke-linecap: round; stroke-linejoin: round; transform-origin: 92.499996px 290.189987px;" id="el1t8gzh6dgmh" class="animable"></path><path d="M111.88,282.46s-1,.6-2.74,1.54" style="fill: none; stroke: rgb(38, 50, 56); stroke-linecap: round; stroke-linejoin: round; transform-origin: 110.509998px 283.229996px;" id="elxxsoqu4i3b" class="animable"></path><path d="M75.42,292.84A56.24,56.24,0,0,1,84,289.61" style="fill: none; stroke: rgb(38, 50, 56); stroke-linecap: round; stroke-linejoin: round; transform-origin: 79.710003px 291.225006px;" id="el04fcvxkn493i" class="animable"></path><polyline points="159.63 244.53 152.13 265.92 148.8 266.48 152.69 255.92" style="fill: none; stroke: rgb(38, 50, 56); stroke-linecap: round; stroke-linejoin: round; transform-origin: 154.215004px 255.505005px;" id="elv410xarmgwk" class="animable"></polyline><polygon points="169.35 244.16 166.14 253.34 164.01 243.73 169.35 244.16" style="fill: rgb(0, 255, 136); stroke: rgb(38, 50, 56); stroke-linecap: round; stroke-linejoin: round; transform-origin: 166.68px 248.534996px;" id="elueayphutpk" class="animable"></polygon><polygon points="163.7 231.47 169.35 244.16 158.03 245.87 163.7 231.47" style="fill: rgb(0, 255, 136); stroke: rgb(38, 50, 56); stroke-linecap: round; stroke-linejoin: round; transform-origin: 163.690002px 238.669998px;" id="elmftvklkqlvj" class="animable"></polygon><path d="M200.54,203.78s-3.63,5.34-4.06,7.05-3.42,7.69-5.77,11.11-10.89,13-16,13.89-9.61-2.78-9.61-2.78L158,245.87l-8.12-31,5.34-3.85a11.8,11.8,0,0,1-2.14-6.62c0-3.84,2.35-8.54,2.35-8.54s3-5.35,7.91-7.91,23.71,1.07,30.12,3.21S201.39,199.08,200.54,203.78Z" style="fill: rgb(255, 255, 255); stroke: rgb(38, 50, 56); stroke-linecap: round; stroke-linejoin: round; transform-origin: 175.317932px 216.470055px;" id="eldam86pjiim5" class="animable"></path><polygon points="165.08 233.05 159.66 228.15 162.08 236.94 165.08 233.05" style="fill: rgb(38, 50, 56); stroke: rgb(38, 50, 56); stroke-linecap: round; stroke-linejoin: round; transform-origin: 162.370003px 232.544998px;" id="elsqzzthy84df" class="animable"></polygon><path d="M187.72,205.28l-2.35,3.2s.64,9.61-1.28,10.47-6-.21-7.05-1.92" style="fill: none; stroke: rgb(38, 50, 56); stroke-linecap: round; stroke-linejoin: round; transform-origin: 182.379997px 212.266792px;" id="elgw2vaccq1ju" class="animable"></path><path d="M176.4,220.23a57.91,57.91,0,0,1-4.49-6.41c-1.71-3-4.27-1.92-5.77,0s-.21,4.7,1.93,6S175.33,222.79,176.4,220.23Z" style="fill: none; stroke: rgb(38, 50, 56); stroke-linecap: round; stroke-linejoin: round; transform-origin: 170.945465px 216.760818px;" id="ela8d7yw5yna" class="animable"></path><path d="M167,213s3,6.19,8.12,7.9" style="fill: none; stroke: rgb(38, 50, 56); stroke-linecap: round; stroke-linejoin: round; transform-origin: 171.059998px 216.949997px;" id="elwuflul9h5nf" class="animable"></path><path d="M178.87,205.39a7,7,0,0,0-5.8-3.37" style="fill: none; stroke: rgb(38, 50, 56); stroke-linecap: round; stroke-linejoin: round; stroke-width: 2px; transform-origin: 175.969994px 203.705009px;" id="el1gebo09v38f" class="animable"></path><path d="M188.45,209.49s3.71-.36,4.64,2.35" style="fill: none; stroke: rgb(38, 50, 56); stroke-linecap: round; stroke-linejoin: round; stroke-width: 2px; transform-origin: 190.769997px 210.657066px;" id="eltj8fkux0uvp" class="animable"></path><path d="M195.6,209.17s.19-3-6-3.19" style="fill: none; stroke: rgb(38, 50, 56); stroke-linecap: round; stroke-linejoin: round; transform-origin: 192.600319px 207.574997px;" id="eleiuv8xxodnr" class="animable"></path><path d="M181.09,203.32s-.49-4.38-7.05-5.27" style="fill: none; stroke: rgb(38, 50, 56); stroke-linecap: round; stroke-linejoin: round; transform-origin: 177.564995px 200.685005px;" id="elob2ytutdgz" class="animable"></path><path d="M155.57,195.69a24.23,24.23,0,0,1,4.9-5.75,86,86,0,0,1,10.16,1.45l1.07,1.71s-6.41,8.76-8.76,8.76-1.71-4.92-3.85-6.2A3.75,3.75,0,0,0,155.57,195.69Z" style="fill: rgb(38, 50, 56); stroke: rgb(38, 50, 56); stroke-linecap: round; stroke-linejoin: round; transform-origin: 163.63501px 195.900009px;" id="elewuvsg1fupl" class="animable"></path><path d="M153.11,204.42a14.31,14.31,0,0,1,.4-3.09c-.39,3.83,1.49,6.81,2.17,7.15a6.65,6.65,0,0,1,1.71,1.5l-2.2,1A11.87,11.87,0,0,1,153.11,204.42Z" style="fill: rgb(38, 50, 56); stroke: rgb(38, 50, 56); stroke-linecap: round; stroke-linejoin: round; transform-origin: 155.249992px 206.154999px;" id="el7y69eihxewf" class="animable"></path><path d="M155.33,194.83s10.47-2.35,26.23,1.75,19.16,8.17,19.16,8.17,2.2-8.72,3.17-14.19-9.23-14-15.11-16.35-18.15-.4-22.27.82-7.28,6.74-8,8.35S155.33,194.83,155.33,194.83Z" style="fill: rgb(0, 255, 136); stroke: rgb(38, 50, 56); stroke-linecap: round; stroke-linejoin: round; transform-origin: 179.64225px 188.928261px;" id="el1wv9qbak3l7" class="animable"></path><path d="M200.72,204.75s8.91,10.91,6.83,11.63-10.1-7.87-18.9-9.65-17.05-5.41-20-8.32a26.18,26.18,0,0,1-4-4.61S185.46,192.93,200.72,204.75Z" style="fill: rgb(255, 255, 255); stroke: rgb(38, 50, 56); stroke-linecap: round; stroke-linejoin: round; transform-origin: 186.257385px 205.104233px;" id="el8use7co9r2" class="animable"></path><polygon points="152.47 211.26 160.16 245.44 150.34 249.29 144.14 214.46 152.47 211.26" style="fill: rgb(0, 255, 136); stroke: rgb(38, 50, 56); stroke-linecap: round; stroke-linejoin: round; transform-origin: 152.150002px 230.274994px;" id="eln4hf19641ro" class="animable"></polygon><path d="M182.47,396.9l-10.83,18.27s2.37,2,2.37,3.05v3.38s13.53,4.74,16.58,6.1,3.72,5.41,3.38,6.43-7.1,2.37-13.53,2.37-18.62-3.05-18.62-3.05-8.12,0-10.83-1.69-1.69-5.76-1-8.8,1.69-6.09,1.69-6.09-.34-5.08.34-6.43,1.69-2.71,1.69-4.07,4.74-21,4.74-21Z" style="fill: rgb(38, 50, 56); stroke: rgb(38, 50, 56); stroke-linecap: round; stroke-linejoin: round; transform-origin: 171.632599px 410.934982px;" id="elpwghw6ugyfp" class="animable"></path><polygon points="172.31 337 200.06 412.81 138.79 377.62 110.51 308.44 172.31 337" style="fill: rgb(38, 50, 56); stroke: rgb(38, 50, 56); stroke-linecap: round; stroke-linejoin: round; transform-origin: 155.285px 360.625px;" id="elo7voal2j2am" class="animable"></polygon><polygon points="261.32 272.35 172.31 337 110.51 308.44 187.54 252.39 261.32 272.35" style="fill: rgb(222, 222, 222); stroke: rgb(38, 50, 56); stroke-linecap: round; stroke-linejoin: round; transform-origin: 185.915001px 294.695px;" id="elqowsgu242im" class="animable"></polygon><polygon points="261.32 272.35 287.04 348.16 200.06 412.81 172.31 337 261.32 272.35" style="fill: rgb(209, 209, 209); stroke: rgb(38, 50, 56); stroke-linecap: round; stroke-linejoin: round; transform-origin: 229.675003px 342.580002px;" id="elsfap8uuyj7q" class="animable"></polygon><polygon points="226.42 263.22 143.1 323.4 149.34 343.54 138.01 336.74 130.76 317.82 211.42 258.81 226.42 263.22" style="fill: rgb(245, 245, 245); stroke: rgb(38, 50, 56); stroke-linecap: round; stroke-linejoin: round; transform-origin: 178.589996px 301.175003px;" id="elntg35ihk03p" class="animable"></polygon><line x1="134.39" y1="319.33" x2="132.62" y2="318.5" style="fill: none; stroke: rgb(38, 50, 56); stroke-linecap: round; stroke-linejoin: round; transform-origin: 133.504997px 318.914993px;" id="elk3owxutf0e" class="animable"></line><line x1="141.58" y1="322.73" x2="135.69" y2="319.95" style="fill: none; stroke: rgb(38, 50, 56); stroke-linecap: round; stroke-linejoin: round; transform-origin: 138.635002px 321.340012px;" id="el5oxi7pmq937" class="animable"></line><polygon points="201.48 340.32 191.44 333.23 189.43 347.5 192.56 345.63 196.67 356.56 202.48 353.11 198.36 342.18 201.48 340.32" style="fill: rgb(38, 50, 56); transform-origin: 195.954994px 344.895004px;" id="el39x99yckhn4" class="animable"></polygon><path d="M198,358.51l2.05,5.46c.19.5.45.57.76.38s.44-.48.25-1L199,357.91l.92-.55,2,5.38a2,2,0,0,1-.79,2.65c-1,.57-1.7.22-2.12-.91l-2-5.39Z" style="fill: rgb(38, 50, 56); transform-origin: 199.575226px 361.509598px;" id="elaffzlyienq" class="animable"></path><path d="M204.17,357l.35.92a1.93,1.93,0,0,1-.8,2.61l-.46.28,1,2.65-1,.58L200.62,357l1.44-.85C203,355.53,203.75,355.86,204.17,357Zm-2.19.4.9,2.4.46-.28c.31-.18.42-.45.23-.95l-.4-1.06c-.19-.51-.42-.57-.73-.38Z" style="fill: rgb(38, 50, 56); transform-origin: 202.682884px 359.94072px;" id="elzlb4006pgk8" class="animable"></path><polygon points="260.54 293.37 250.49 286.28 248.49 300.55 251.61 298.69 255.73 309.62 261.53 306.16 257.42 295.23 260.54 293.37" style="fill: rgb(38, 50, 56); transform-origin: 255.010002px 297.949997px;" id="elo7xy6vggp2" class="animable"></polygon><path d="M257.08,311.57l2.06,5.45c.19.51.45.57.76.39s.44-.49.25-1L258.09,311l.92-.55,2,5.38a2,2,0,0,1-.78,2.64c-1,.57-1.7.22-2.13-.91l-2-5.38Z" style="fill: rgb(38, 50, 56); transform-origin: 258.664383px 314.594604px;" id="elzxf8d1icmo" class="animable"></path><path d="M263.23,310l.35.92a2,2,0,0,1-.8,2.62l-.46.27,1,2.66-1,.58L259.68,310l1.44-.86C262.09,308.58,262.8,308.91,263.23,310Zm-2.19.41.9,2.39.46-.27c.31-.19.42-.45.23-1l-.4-1.06c-.19-.5-.42-.56-.73-.38Z" style="fill: rgb(38, 50, 56); transform-origin: 261.733246px 312.96077px;" id="elvghwp9a4cxc" class="animable"></path><line x1="286.09" y1="313.1" x2="287.27" y2="316.49" style="fill: none; stroke: rgb(38, 50, 56); stroke-linecap: round; stroke-linejoin: round; transform-origin: 286.679993px 314.794998px;" id="elri3yy06oc6" class="animable"></line><line x1="272.87" y1="275.16" x2="285.16" y2="310.46" style="fill: none; stroke: rgb(38, 50, 56); stroke-linecap: round; stroke-linejoin: round; transform-origin: 279.014999px 292.809998px;" id="elefqt5herw2j" class="animable"></line><line x1="289.76" y1="309.16" x2="293.77" y2="320.67" style="fill: none; stroke: rgb(38, 50, 56); stroke-linecap: round; stroke-linejoin: round; transform-origin: 291.764999px 314.915009px;" id="elb204w8ap7m7" class="animable"></line><line x1="279.37" y1="279.34" x2="288.76" y2="306.31" style="fill: none; stroke: rgb(38, 50, 56); stroke-linecap: round; stroke-linejoin: round; transform-origin: 284.065002px 292.824997px;" id="el0hxu0mg5xttp" class="animable"></line><line x1="226.27" y1="255.2" x2="197.17" y2="247.3" style="fill: none; stroke: rgb(38, 50, 56); stroke-linecap: round; stroke-linejoin: round; transform-origin: 211.720001px 251.25px;" id="el4eoxb152rac" class="animable"></line><line x1="234.79" y1="257.51" x2="229.33" y2="256.03" style="fill: none; stroke: rgb(38, 50, 56); stroke-linecap: round; stroke-linejoin: round; transform-origin: 232.059998px 256.770004px;" id="elw35xigwq7xs" class="animable"></line><line x1="216.21" y1="249.62" x2="194.85" y2="244.05" style="fill: none; stroke: rgb(38, 50, 56); stroke-linecap: round; stroke-linejoin: round; transform-origin: 205.530006px 246.834999px;" id="el7iveg53iy1" class="animable"></line><line x1="207.6" y1="413.88" x2="204.14" y2="416.34" style="fill: none; stroke: rgb(38, 50, 56); stroke-linecap: round; stroke-linejoin: round; transform-origin: 205.870003px 415.110001px;" id="elyhjreqzheeh" class="animable"></line><line x1="221.79" y1="403.8" x2="209.6" y2="412.46" style="fill: none; stroke: rgb(38, 50, 56); stroke-linecap: round; stroke-linejoin: round; transform-origin: 215.695px 408.12999px;" id="elabsvxzuo6ea" class="animable"></line><line x1="225.96" y1="406.59" x2="217.61" y2="412.62" style="fill: none; stroke: rgb(38, 50, 56); stroke-linecap: round; stroke-linejoin: round; transform-origin: 221.785004px 409.604996px;" id="elqblx6nrzb1" class="animable"></line><path d="M206.57,304.52a32.66,32.66,0,0,1,3.31-.52,14.45,14.45,0,0,0,5.17-.1c2.27-.62,3.31,0,2.68,1.45a5.89,5.89,0,0,1-3.92,3c-1.24.1-4,.1-4,.1l-3.72-3.31Z" style="fill: rgb(255, 255, 255); stroke: rgb(38, 50, 56); stroke-linecap: round; stroke-linejoin: round; transform-origin: 212.000656px 306.055344px;" id="elrdrnc79bst" class="animable"></path><path d="M137.68,230.08s6.12,5.83,6.67,11.94S141,283.15,141,283.15s12.5,6.11,21.95,11.67,25.29,12.23,25.29,12.23,18.33-3.34,19.72-2.78,8.9,8.61,9.17,9.72-1.39,7.5-1.39,8.62-1.44,1.14-1.44,1.14l-1.06,0-.76,1.52a2.59,2.59,0,0,1-2,1.41l-1.11.12s-1.94,2.23-3.61.84-5.28-7.51-5.28-7.51-8.61-.83-10.84-1.66a37.28,37.28,0,0,1-5.28-2.78S133,302.6,128,301.21s-6.95-2.78-8.89-6.67-6.36-42.5-6.36-45.83" style="fill: rgb(255, 255, 255); stroke: rgb(38, 50, 56); stroke-linecap: round; stroke-linejoin: round; transform-origin: 164.954849px 279.088097px;" id="elk8pkrlrwpd" class="animable"></path><path d="M200.2,314s5.84,5,5.84,6.95,2.7,6.22,2.7,6.22" style="fill: none; stroke: rgb(38, 50, 56); stroke-linecap: round; stroke-linejoin: round; transform-origin: 204.469994px 320.585007px;" id="elusm9r0emt39" class="animable"></path><path d="M203.68,310.41s3.93,4.34,4.75,5.69,2,10.55,2,10.55" style="fill: none; stroke: rgb(38, 50, 56); stroke-linecap: round; stroke-linejoin: round; transform-origin: 207.054993px 318.529999px;" id="elr4olxuqlkx" class="animable"></path><path d="M206.88,307.83s5,4.65,5.07,6.41,1.31,9.48,1.31,9.48" style="fill: none; stroke: rgb(38, 50, 56); stroke-linecap: round; stroke-linejoin: round; transform-origin: 210.070007px 315.774994px;" id="elnstiklwh5ug" class="animable"></path><path d="M137.39,229.6s6.41,6.31,7,12.42c.39,4.3-1.41,22.86-2.52,33.52-5.57-2.05-16.15-4.25-25.63,3.45-1.63-11.7-3.22-26.26-3.49-30.28" style="fill: rgb(0, 255, 136); stroke: rgb(38, 50, 56); stroke-linecap: round; stroke-linejoin: round; transform-origin: 128.597168px 254.295013px;" id="elfve1g95m75" class="animable"></path><path d="M141,283.15s-6.39-1.95-8.89-1.39" style="fill: none; stroke: rgb(38, 50, 56); stroke-linecap: round; stroke-linejoin: round; transform-origin: 136.555px 282.404449px;" id="el0t5vtf4bojp" class="animable"></path><path d="M121.91,459.43s7.79,8.8,13.54,13.54,3.38,9.14-.68,10.15-12.18-.67-19.63-3-13.53-10.15-13.53-10.15-8.47-5.42-9.14-7.45S99.57,451,99.57,451,119.88,459.43,121.91,459.43Z" style="fill: rgb(0, 255, 136); stroke: rgb(38, 50, 56); stroke-linecap: round; stroke-linejoin: round; transform-origin: 115.651936px 467.209793px;" id="elc9ry6t3pbg" class="animable"></path><path d="M92.47,462.48c-.24-.7.54-2.3,1.67-4.09,4.49,3.87,12.53,14.91,18.63,18,5.17,2.58,16.63,5.37,24.68,5.37a6.19,6.19,0,0,1-2.68,1.39c-4.06,1-12.18-.67-19.63-3s-13.53-10.15-13.53-10.15S93.14,464.51,92.47,462.48Z" style="fill: rgb(255, 255, 255); stroke: rgb(38, 50, 56); stroke-linecap: round; stroke-linejoin: round; transform-origin: 114.93824px 470.917892px;" id="elcxdht3p7s3e" class="animable"></path><path d="M79.92,315.34s12.86-5.42,22.34-1.7,26.4,19,33.5,29.79S149,359,148.62,369.15s-16.24,55.5-16.92,59.56-5,20.91-5,20.91a29.26,29.26,0,0,1,0,6.43c-.31,2.58-1.14,7-1.14,7s-11.38-.6-17.81-3.65a43.87,43.87,0,0,1-9.82-6.09,42.2,42.2,0,0,1,2-7.44c1.36-3.39,5.73-9.4,6.41-11.44s2.37-22.67,2.37-31.13,3.72-29.45,3.72-30.8a36.7,36.7,0,0,1,1.35-5.75s-28.76-14.22-36.55-21-11.1-13.12-11.87-19.18c-.55-4.39,1.27-10.67,1.27-10.67" style="fill: rgb(255, 255, 255); stroke: rgb(38, 50, 56); stroke-linecap: round; stroke-linejoin: round; transform-origin: 106.94659px 387.692871px;" id="elt15gruxq6up" class="animable"></path><path d="M76.87,303.49s-4.4,4.74-3.72,6.77S76.87,316,75.52,316s-3.38,3.05-3.38,3.05l3,.67-1.35,7.79L114.44,360a38.43,38.43,0,0,0,6.09,4.06l-2.37,4.06,4.4.68s-6.43,6.43-7.1,11.84-6.41,62.2-7.09,63.89-1.69,2.71-2,4.4a28.61,28.61,0,0,0,0,5.42c0,1-.34,3.38-.34,3.38" style="fill: none; stroke: rgb(38, 50, 56); stroke-linecap: round; stroke-linejoin: round; transform-origin: 97.349998px 380.609985px;" id="elq64qxlnc58b" class="animable"></path></g><defs>     <filter id="active" height="200%">         <feMorphology in="SourceAlpha" result="DILATED" operator="dilate" radius="2"></feMorphology>                <feFlood flood-color="#32DFEC" flood-opacity="1" result="PINK"></feFlood>        <feComposite in="PINK" in2="DILATED" operator="in" result="OUTLINE"></feComposite>        <feMerge>            <feMergeNode in="OUTLINE"></feMergeNode>            <feMergeNode in="SourceGraphic"></feMergeNode>        </feMerge>    </filter>    <filter id="hover" height="200%">        <feMorphology in="SourceAlpha" result="DILATED" operator="dilate" radius="2"></feMorphology>                <feFlood flood-color="#ff0000" flood-opacity="0.5" result="PINK"></feFlood>        <feComposite in="PINK" in2="DILATED" operator="in" result="OUTLINE"></feComposite>        <feMerge>            <feMergeNode in="OUTLINE"></feMergeNode>            <feMergeNode in="SourceGraphic"></feMergeNode>        </feMerge>            <feColorMatrix type="matrix" values="0   0   0   0   0                0   1   0   0   0                0   0   0   0   0                0   0   0   1   0 "></feColorMatrix>    </filter></defs></svg>